<svg width="25" height="26" viewBox="0 0 25 26" fill="none" xmlns="http://www.w3.org/2000/svg">
<path d="M24.0234 4H0.976562C0.437207 4 0 4.43721 0 4.97656C0 5.51592 0.437207 5.95312 0.976562 5.95312H24.0234C24.5628 5.95312 25 5.51592 25 4.97656C25 4.43721 24.5628 4 24.0234 4Z" fill="black"/>
<path d="M24.0234 11.9531H0.976562C0.437207 11.9531 0 12.3903 0 12.9297C0 13.469 0.437207 13.9062 0.976562 13.9062H24.0234C24.5628 13.9062 25 13.469 25 12.9297C25 12.3903 24.5628 11.9531 24.0234 11.9531Z" fill="black"/>
<path d="M24.0234 19.9062H0.976562C0.437207 19.9062 0 20.3435 0 20.8828C0 21.4222 0.437207 21.8594 0.976562 21.8594H24.0234C24.5628 21.8594 25 21.4222 25 20.8828C25 20.3435 24.5628 19.9062 24.0234 19.9062Z" fill="black"/>
</svg>
